<svg width="58" height="58" viewBox="0 0 58 58" fill="none" xmlns="http://www.w3.org/2000/svg">
<path d="M0 20.6522C0 13.4232 0 9.80876 1.40685 7.04768C2.64434 4.61895 4.61895 2.64434 7.04768 1.40685C9.80876 0 13.4232 0 20.6522 0H36.413C43.642 0 47.2564 0 50.0175 1.40685C52.4463 2.64434 54.4209 4.61895 55.6584 7.04768C57.0652 9.80876 57.0652 13.4232 57.0652 20.6522V36.413C57.0652 43.642 57.0652 47.2564 55.6584 50.0175C54.4209 52.4463 52.4463 54.4209 50.0175 55.6584C47.2564 57.0652 43.642 57.0652 36.413 57.0652H20.6522C13.4232 57.0652 9.80876 57.0652 7.04768 55.6584C4.61895 54.4209 2.64434 52.4463 1.40685 50.0175C0 47.2564 0 43.642 0 36.413V20.6522Z" fill="#001E36"/>
<path d="M12.2283 41.813V16.7189C12.2283 16.5482 12.2996 16.4507 12.466 16.4507C14.9232 16.4507 17.3792 16.3044 19.837 16.3044C23.8251 16.3044 28.1433 17.668 29.6569 21.8402C30.0136 22.8644 30.2038 23.913 30.2038 25.0105C30.2038 27.1077 29.7283 28.8392 28.7772 30.2049C26.1204 34.0197 21.5156 33.9604 17.3879 33.9604V41.7886C17.4202 42.0204 17.2227 42.13 17.0313 42.13H12.5136C12.3234 42.13 12.2283 42.0325 12.2283 41.813ZM17.4117 21.1573V29.3513C19.0483 29.4712 20.761 29.4842 22.3336 28.9611C24.0696 28.4603 25.0204 26.9575 25.0204 25.1568C25.0687 23.6223 24.2325 22.15 22.8091 21.5963C21.2555 20.9503 19.0887 20.9116 17.4117 21.1573Z" fill="#31A8FF"/>
<path d="M45.034 27.7324C44.3145 27.3533 43.5483 27.0759 42.7562 26.9079C41.7383 26.6684 37.7237 25.8296 37.7222 27.9287C37.7579 29.1007 39.6182 29.6748 40.4401 30.0096C43.3257 31.0003 46.5911 32.7712 46.5269 36.331C46.6151 40.7625 42.3215 42.5341 38.641 42.5345C36.7249 42.5543 34.7288 42.2576 32.9753 41.4351C32.8079 41.3465 32.7002 41.157 32.7073 40.9639V36.7236C32.6885 36.5536 32.8709 36.405 33.0136 36.5273C34.7317 37.5663 36.7682 38.0708 38.7558 38.0978C39.6332 38.0978 41.3721 38.0127 41.359 36.7236C41.359 35.4864 39.2787 34.9177 38.4495 34.6034C37.2475 34.1743 36.1078 33.5799 35.0616 32.8366C33.5996 31.7937 32.6824 30.1216 32.7073 28.2821C32.6988 24.1094 36.6511 22.2365 40.2105 22.2356C41.8745 22.2219 43.6613 22.3451 45.2103 23.0209C45.4331 23.0864 45.4792 23.321 45.4783 23.5313V27.4968C45.4924 27.743 45.219 27.8268 45.034 27.7324Z" fill="#31A8FF"/>
</svg>
