<svg width="58" height="58" viewBox="0 0 58 58" fill="none" xmlns="http://www.w3.org/2000/svg">
<path d="M0 21.2392C0 14.0102 0 10.3958 1.40685 7.63468C2.64434 5.20596 4.61895 3.23135 7.04768 1.99385C9.80876 0.587006 13.4232 0.587006 20.6522 0.587006H36.413C43.642 0.587006 47.2564 0.587006 50.0175 1.99385C52.4463 3.23135 54.4209 5.20596 55.6584 7.63468C57.0652 10.3958 57.0652 14.0102 57.0652 21.2392V37C57.0652 44.229 57.0652 47.8434 55.6584 50.6045C54.4209 53.0333 52.4463 55.0079 50.0175 56.2454C47.2564 57.6522 43.642 57.6522 36.413 57.6522H20.6522C13.4232 57.6522 9.80876 57.6522 7.04768 56.2454C4.61895 55.0079 2.64434 53.0333 1.40685 50.6045C0 47.8434 0 44.229 0 37V21.2392Z" fill="#330000"/>
<path d="M27.653 36.4489H18.81L17.0108 42.1813C16.9609 42.3943 16.7648 42.5451 16.5514 42.5347H12.0725C11.8171 42.5347 11.7278 42.3907 11.8046 42.1028L19.4608 19.4874C19.5374 19.2519 19.614 18.9836 19.6905 18.6825C19.7907 18.1587 19.8419 17.6262 19.8436 17.0924C19.8217 16.9347 19.9603 16.7954 20.1116 16.8175H26.1983C26.3766 16.8175 26.4787 16.883 26.5045 17.0139L35.1945 42.142C35.271 42.404 35.1944 42.5349 34.9647 42.5347H29.9881C29.8135 42.5545 29.6469 42.4349 29.6053 42.2599L27.653 36.4489ZM20.1881 31.5019H26.2366C25.2428 28.1061 24.1214 24.755 23.2124 21.3328C22.2317 24.7608 21.1617 28.1749 20.1881 31.5019Z" fill="#FF9A00"/>
<path d="M40.3619 20.9793C39.9715 20.9954 39.5821 20.9268 39.2193 20.7779C38.8565 20.6291 38.5284 20.4033 38.2564 20.1155C37.9853 19.8152 37.7746 19.4629 37.6367 19.0788C37.4987 18.6948 37.4361 18.2865 37.4525 17.8775C37.4386 17.4726 37.5081 17.0692 37.6565 16.6938C37.8049 16.3183 38.0289 15.9791 38.3138 15.6984C38.596 15.4207 38.929 15.2031 39.2937 15.0582C39.6584 14.9133 40.0475 14.844 40.4384 14.8543C41.3572 14.8543 42.0782 15.1357 42.6014 15.6984C42.8654 15.9909 43.0707 16.3339 43.2053 16.7078C43.34 17.0817 43.4014 17.4792 43.3861 17.8775C43.4021 18.2881 43.3375 18.6978 43.1961 19.0822C43.0547 19.4667 42.8394 19.8181 42.563 20.1155C42.2742 20.4076 41.9295 20.6351 41.5506 20.7838C41.1718 20.9324 40.7671 20.999 40.3619 20.9793ZM37.7204 42.1419V23.3743C37.7204 23.1388 37.8221 23.0209 38.0267 23.0209H42.7353C42.9393 23.0209 43.0414 23.1387 43.0416 23.3743V42.1419C43.0416 42.4039 42.9395 42.5348 42.7353 42.5346H38.065C37.8354 42.5346 37.7205 42.4037 37.7204 42.1419Z" fill="#FF9A00"/>
</svg>
