<svg width="58" height="58" viewBox="0 0 58 58" fill="none" xmlns="http://www.w3.org/2000/svg">
<path d="M11.8526 6.14355C8.59654 6.14355 6.18722 8.99343 6.29507 12.0841C6.39856 15.0535 6.26412 18.8991 5.29594 22.0352C4.32487 25.1806 2.68255 27.173 0 27.4289V30.317C2.68255 30.5728 4.32487 32.5652 5.29594 35.7106C6.26412 38.8468 6.39856 42.6924 6.29507 45.6617C6.18722 48.7519 8.59653 51.6023 11.8531 51.6023H45.2169C48.473 51.6023 50.8819 48.7524 50.774 45.6617C50.6705 42.6924 50.805 38.8468 51.7731 35.7106C52.7447 32.5652 54.3827 30.5728 57.0652 30.317V27.4289C54.3827 27.173 52.7447 25.1806 51.7731 22.0352C50.805 18.8996 50.6705 15.0535 50.774 12.0841C50.8819 8.99391 48.473 6.14355 45.2169 6.14355H11.8522H11.8526ZM38.6883 34.1263C38.6883 38.382 35.5139 40.963 30.246 40.963H21.2786C20.7444 40.963 20.3113 40.53 20.3113 39.9958V17.75C20.3113 17.2159 20.7444 16.7828 21.2786 16.7828H30.1947C34.5873 16.7828 37.4701 19.1622 37.4701 22.8153C37.4701 25.3794 35.5308 27.675 33.0601 28.0769V28.2109C36.4236 28.5799 38.6883 30.9089 38.6883 34.1263ZM29.2682 19.8489H24.155V27.071H28.4615C31.7906 27.071 33.6264 25.7305 33.6264 23.3342C33.6264 21.0888 32.0479 19.8489 29.2682 19.8489ZM24.155 29.9368V37.896H29.4563C32.9223 37.896 34.7585 36.5051 34.7585 33.8913C34.7585 31.2769 32.871 29.9364 29.2333 29.9364H24.155V29.9368Z" fill="#7E13F8"/>
<path d="M38.6883 34.1262C38.6883 38.382 35.5139 40.9629 30.246 40.9629H21.2786C20.7444 40.9629 20.3113 40.5299 20.3113 39.9957V17.75C20.3113 17.2158 20.7444 16.7828 21.2786 16.7828H30.1948C34.5873 16.7828 37.4701 19.1621 37.4701 22.8152C37.4701 25.3793 35.5308 27.675 33.0601 28.0769V28.2108C36.4236 28.5798 38.6883 30.9088 38.6883 34.1262ZM29.2682 19.8488H24.155V27.071H28.4615C31.7906 27.071 33.6264 25.7304 33.6264 23.3342C33.6264 21.0888 32.0479 19.8488 29.2682 19.8488ZM24.155 29.9368V37.8959H29.4563C32.9223 37.8959 34.7585 36.5051 34.7585 33.8912C34.7585 31.2769 32.871 29.9363 29.2333 29.9363H24.155V29.9368Z" fill="white"/>
</svg>
