<svg width="58" height="58" viewBox="0 0 58 58" fill="none" xmlns="http://www.w3.org/2000/svg">
<g opacity="0.4">
<path fill-rule="evenodd" clip-rule="evenodd" d="M7.92297 51.9474L3.34367 0.586914H53.6629L49.0787 51.939L28.4729 57.6521L7.92297 51.9474Z" fill="#0071BC"/>
<path fill-rule="evenodd" clip-rule="evenodd" d="M28.5456 53.2825L45.1755 48.7076L49.0718 4.86417H28.5456V53.2825Z" fill="#29ABE2"/>
<path fill-rule="evenodd" clip-rule="evenodd" d="M13.8257 23.7338L14.3773 30.0237L28.5456 23.7338V17.4337L13.8257 23.7338Z" fill="#B3B3B3"/>
<path fill-rule="evenodd" clip-rule="evenodd" d="M44.2374 10.7086L28.5456 17.4337V23.7338L43.6963 16.9986L44.2374 10.7086Z" fill="#E6E6E6"/>
<path fill-rule="evenodd" clip-rule="evenodd" d="M28.5456 40.1912L28.4969 40.1985L21.4704 38.3115L21.0114 33.2944H14.6876L15.5701 43.1784L28.4955 46.7572L28.5456 46.7454V40.1912Z" fill="#E6E6E6"/>
<path fill-rule="evenodd" clip-rule="evenodd" d="M28.5456 23.7338V30.0237H36.2384L35.5392 38.2472L28.5456 40.1966V46.7503L41.4281 43.1715L43.1245 23.7338H28.5456Z" fill="white"/>
<path fill-rule="evenodd" clip-rule="evenodd" d="M28.5456 23.7338H13.8257L14.3773 30.0237H28.5456V23.7338Z" fill="#E6E6E6"/>
<path fill-rule="evenodd" clip-rule="evenodd" d="M28.5456 16.9986V10.7086H28.4817H12.7073L13.2655 16.9986H28.5456Z" fill="#E6E6E6"/>
<path fill-rule="evenodd" clip-rule="evenodd" d="M28.5456 10.7086V16.9197V16.9986H43.6963L44.2374 10.7086H28.5456Z" fill="white"/>
</g>
</svg>
