<svg width="58" height="58" viewBox="0 0 58 58" fill="none" xmlns="http://www.w3.org/2000/svg">
<path fill-rule="evenodd" clip-rule="evenodd" d="M28.5329 2.05487C13.146 2.05487 0.668762 14.5298 0.668762 29.919C0.668762 42.2301 8.65268 52.6747 19.7239 56.3591C21.1165 56.6171 21.6277 55.7547 21.6277 55.0187C21.6277 54.3543 21.6019 52.1593 21.5899 49.831C13.8381 51.5166 12.2024 46.5434 12.2024 46.5434C10.9348 43.3227 9.10856 42.4663 9.10856 42.4663C6.58045 40.7369 9.29912 40.7724 9.29912 40.7724C12.0972 40.969 13.5705 43.6438 13.5705 43.6438C16.0557 47.9037 20.0889 46.6721 21.679 45.9602C21.9291 44.1593 22.6512 42.93 23.448 42.2342C17.259 41.5296 10.7531 39.1404 10.7531 28.4637C10.7531 25.4215 11.8415 22.9359 13.624 20.9845C13.3347 20.2827 12.3809 17.4487 13.8939 13.6106C13.8939 13.6106 16.2338 12.8617 21.5585 16.4668C23.7812 15.8494 26.1649 15.5398 28.5329 15.5292C30.9009 15.5398 33.2864 15.8494 35.5132 16.4668C40.8315 12.8617 43.1681 13.6106 43.1681 13.6106C44.6848 17.4487 43.7306 20.2827 43.4413 20.9845C45.2279 22.9359 46.309 25.4215 46.309 28.4637C46.309 39.1658 39.7905 41.5222 33.5859 42.2121C34.5853 43.0768 35.4758 44.7725 35.4758 47.3721C35.4758 51.1004 35.4435 54.101 35.4435 55.0187C35.4435 55.7602 35.9451 56.6291 37.3575 56.3554C48.4227 52.6669 56.3965 42.2259 56.3965 29.919C56.3965 14.5298 43.9212 2.05487 28.5329 2.05487ZM11.1048 41.7479C11.0434 41.8863 10.8256 41.9278 10.6272 41.8328C10.4251 41.7419 10.3116 41.5532 10.3771 41.4143C10.4371 41.2717 10.6554 41.232 10.857 41.3275C11.0596 41.4184 11.1749 41.609 11.1048 41.7479ZM12.4754 42.9708C12.3425 43.094 12.0827 43.0368 11.9065 42.8421C11.7242 42.6479 11.69 42.3881 11.8248 42.263C11.9618 42.1398 12.2138 42.1975 12.3965 42.3918C12.5787 42.5883 12.6143 42.8463 12.4754 42.9708ZM13.4157 44.5356C13.2449 44.6542 12.9658 44.543 12.7932 44.2952C12.6225 44.0474 12.6225 43.7503 12.7969 43.6312C12.9699 43.5122 13.2449 43.6192 13.4198 43.8652C13.5901 44.1171 13.5901 44.4142 13.4157 44.5356ZM15.0059 46.3478C14.8532 46.5162 14.5279 46.471 14.2898 46.2412C14.0461 46.0165 13.9783 45.6977 14.1315 45.5292C14.2861 45.3604 14.6132 45.4079 14.8532 45.6358C15.0949 45.8601 15.1688 46.1812 15.0059 46.3478ZM17.0611 46.9596C16.9937 47.1778 16.6804 47.277 16.3648 47.1843C16.0497 47.0888 15.8434 46.8331 15.9071 46.6126C15.9726 46.393 16.2873 46.2896 16.6052 46.3888C16.9199 46.4839 17.1266 46.7376 17.0611 46.9596ZM19.4 47.2191C19.4079 47.4489 19.1402 47.6394 18.8089 47.6436C18.4758 47.651 18.2063 47.465 18.2026 47.2389C18.2026 47.0068 18.4643 46.8181 18.7974 46.8126C19.1287 46.8061 19.4 46.9907 19.4 47.2191ZM21.6977 47.131C21.7374 47.3552 21.5072 47.5855 21.1782 47.6469C20.8547 47.7059 20.5553 47.5675 20.5142 47.3451C20.4741 47.1153 20.7085 46.8851 21.0315 46.8255C21.3609 46.7683 21.6558 46.9031 21.6977 47.131Z" fill="#161614"/>
</svg>
