<svg width="30" height="30" viewBox="0 0 30 30" fill="none" xmlns="http://www.w3.org/2000/svg">
<g clip-path="url(#clip0_63_289)">
<path fill-rule="evenodd" clip-rule="evenodd" d="M15.0003 0.625C11.4394 0.626848 7.99516 1.88807 5.28359 4.18315C2.57201 6.47823 0.769879 9.65751 0.199431 13.1525C-0.371018 16.6475 0.327408 20.2303 2.16984 23.2602C4.01227 26.2902 6.87855 28.5697 10.2562 29.6912C11.0013 29.8295 11.282 29.3677 11.282 28.975C11.282 28.5823 11.2671 27.4438 11.2621 26.199C7.08924 27.1005 6.20748 24.4381 6.20748 24.4381C5.52691 22.7093 4.5433 22.2549 4.5433 22.2549C3.18214 21.3312 4.64514 21.3485 4.64514 21.3485C6.15284 21.4547 6.94519 22.8871 6.94519 22.8871C8.28151 25.1667 10.4549 24.5073 11.3093 24.122C11.4434 23.1563 11.8334 22.4994 12.2631 22.1264C8.92979 21.751 5.42755 20.4717 5.42755 14.7568C5.40689 13.2746 5.96003 11.8413 6.97251 10.7534C6.81851 10.378 6.30435 8.86154 7.11905 6.80179C7.11905 6.80179 8.37838 6.40169 11.2447 8.33055C13.7033 7.66203 16.2973 7.66203 18.7559 8.33055C21.6198 6.40169 22.8766 6.80179 22.8766 6.80179C23.6938 8.8566 23.1797 10.373 23.0257 10.7534C24.0414 11.8415 24.5957 13.2773 24.5731 14.7617C24.5731 20.489 21.0634 21.751 17.7251 22.119C18.2616 22.5833 18.741 23.4897 18.741 24.8827C18.741 26.8782 18.7236 28.4835 18.7236 28.975C18.7236 29.3726 18.9944 29.8369 19.7544 29.6912C23.1324 28.5696 25.999 26.2896 27.8414 23.2592C29.6838 20.2287 30.3819 16.6454 29.8108 13.1501C29.2397 9.65475 27.4366 6.47544 24.7242 4.18076C22.0117 1.88607 18.5667 0.625676 15.0053 0.625H15.0003Z" fill="#191717"/>
<path d="M10.0348 24.9688C10.0348 25.0899 9.8957 25.1936 9.71686 25.1961C9.53803 25.1985 9.39148 25.0997 9.39148 24.9787C9.39148 24.8577 9.53057 24.754 9.70941 24.7515C9.88824 24.749 10.0348 24.8454 10.0348 24.9688Z" fill="#191717"/>
<path d="M11.1774 24.7789C11.1997 24.8999 11.0755 25.0259 10.8967 25.0555C10.7179 25.0851 10.5614 25.0135 10.539 24.895C10.5167 24.7764 10.6458 24.648 10.8197 24.6159C10.9936 24.5838 11.155 24.6579 11.1774 24.7789Z" fill="#191717"/>
<path d="M8.80772 24.885C8.77046 25.0011 8.60156 25.0529 8.43265 25.0035C8.26375 24.9541 8.15198 24.8158 8.18427 24.6973C8.21656 24.5787 8.38795 24.5244 8.55933 24.5787C8.73072 24.6331 8.84001 24.764 8.80772 24.885Z" fill="#191717"/>
<path d="M7.68257 24.4011C7.6006 24.4924 7.43419 24.4677 7.29757 24.3443C7.16096 24.2208 7.12866 24.0528 7.21063 23.9639C7.2926 23.875 7.45902 23.8997 7.6006 24.0207C7.74218 24.1417 7.7695 24.3121 7.68257 24.4011V24.4011Z" fill="#191717"/>
<path d="M6.88031 23.5712C6.7884 23.6354 6.63191 23.5712 6.54498 23.4428C6.52094 23.4198 6.50182 23.3921 6.48876 23.3616C6.4757 23.331 6.46896 23.2982 6.46896 23.265C6.46896 23.2318 6.4757 23.1989 6.48876 23.1684C6.50182 23.1378 6.52094 23.1102 6.54498 23.0872C6.63688 23.0254 6.79337 23.0872 6.88031 23.2131C6.96724 23.3391 6.96972 23.507 6.88031 23.5712V23.5712Z" fill="#191717"/>
<path d="M6.28911 22.7144C6.23767 22.7402 6.17882 22.7474 6.12264 22.7348C6.06645 22.7222 6.01643 22.6905 5.98112 22.6453C5.88425 22.5415 5.86436 22.3983 5.93888 22.3341C6.0134 22.2699 6.14753 22.2995 6.2444 22.4032C6.34128 22.507 6.36363 22.6502 6.28911 22.7144Z" fill="#191717"/>
<path d="M5.68055 22.0398C5.64826 22.1139 5.52903 22.1361 5.43216 22.0842C5.33529 22.0324 5.26326 21.9361 5.29804 21.8595C5.33281 21.7829 5.44955 21.7632 5.54642 21.815C5.64329 21.8669 5.7178 21.9657 5.68055 22.0398Z" fill="#191717"/>
</g>
<defs>
<clipPath id="clip0_63_289">
<rect width="30" height="30" fill="white"/>
</clipPath>
</defs>
</svg>
