<svg width="58" height="58" viewBox="0 0 58 58" fill="none" xmlns="http://www.w3.org/2000/svg">
<path fill-rule="evenodd" clip-rule="evenodd" d="M7.92284 51.3608L3.34367 0H53.6609L49.0768 51.3527L28.4715 57.0652L7.92284 51.3608Z" fill="#E44D26"/>
<path fill-rule="evenodd" clip-rule="evenodd" d="M28.5023 52.6988L45.1524 48.0827L49.0698 4.19949H28.5023V52.6988Z" fill="#F16529"/>
<path d="M20.1668 23.2485H28.5023V29.5476H14.4059L12.7069 10.4987H28.5023V16.798H19.5911L20.1668 23.2485Z" fill="#EBEBEB"/>
<path d="M28.4747 39.6155L28.5023 39.6081V46.1619L28.4733 46.17L15.5699 42.5879L14.6873 32.6973H21.0107L21.4592 37.7212L28.4747 39.6155Z" fill="#EBEBEB"/>
<path d="M28.4805 10.4987H44.2601L43.696 16.798H28.4805V10.4987Z" fill="white"/>
<path d="M28.4805 29.5476V23.2485H43.1229L42.9692 24.94L41.3942 42.5879L28.4805 46.1669V39.6134L35.5061 37.7172L36.2372 29.5476H28.4805Z" fill="white"/>
</svg>
