<svg width="58" height="58" viewBox="0 0 58 58" fill="none" xmlns="http://www.w3.org/2000/svg">
<path d="M21.1333 44.7839C21.1333 44.7839 18.9526 46.052 22.6853 46.4812C27.2073 46.997 29.5184 46.923 34.5017 45.9799C34.5017 45.9799 35.8118 46.8014 37.6415 47.5129C26.4704 52.3007 12.359 47.2356 21.1333 44.7839Z" fill="#5382A1"/>
<path d="M19.7686 38.5362C19.7686 38.5362 17.3228 40.3467 21.0582 40.733C25.8887 41.2314 29.7035 41.2722 36.3045 40.0011C36.3045 40.0011 37.2175 40.9267 38.6532 41.4329C25.1466 45.3824 10.1027 41.7443 19.7686 38.5362Z" fill="#5382A1"/>
<path d="M31.2763 27.9379C34.0288 31.107 30.5531 33.9588 30.5531 33.9588C30.5531 33.9588 37.5423 30.3507 34.3325 25.8326C31.3346 21.6192 29.0356 19.5257 41.4814 12.3076C41.4814 12.3076 21.9456 17.1867 31.2763 27.9379Z" fill="#E76F00"/>
<path d="M46.051 49.4051C46.051 49.4051 47.6648 50.7348 44.2738 51.7634C37.8256 53.7168 17.4359 54.3067 11.7718 51.8413C9.73565 50.9555 13.554 49.7262 14.7551 49.4683C16.0077 49.1967 16.7235 49.2473 16.7235 49.2473C14.4591 47.6521 2.0875 52.3794 10.4393 53.7333C33.216 57.427 51.959 52.07 46.051 49.4051Z" fill="#5382A1"/>
<path d="M22.1824 32.0628C22.1824 32.0628 11.8109 34.5262 18.5096 35.4208C21.338 35.7995 26.9764 35.7138 32.2283 35.2737C36.5205 34.9117 40.8304 34.1419 40.8304 34.1419C40.8304 34.1419 39.3169 34.79 38.2219 35.5377C27.6899 38.3076 7.34385 37.019 13.2012 34.1857C18.1548 31.7912 22.1824 32.0628 22.1824 32.0628Z" fill="#5382A1"/>
<path d="M40.7874 42.4624C51.4938 36.899 46.5436 31.5526 43.0884 32.2729C42.2416 32.4492 41.864 32.6019 41.864 32.6019C41.864 32.6019 42.1783 32.1094 42.7788 31.8962C49.6142 29.4931 54.8711 38.9839 40.5723 42.7428C40.5723 42.743 40.7379 42.5949 40.7874 42.4624Z" fill="#5382A1"/>
<path d="M34.3328 0.652222C34.3328 0.652222 40.2621 6.58356 28.709 15.7043C19.4447 23.0207 26.5965 27.1923 28.7052 31.9585C23.2974 27.0794 19.3288 22.7843 21.9913 18.7868C25.8991 12.9188 36.7251 10.0738 34.3328 0.652222Z" fill="#E76F00"/>
<path d="M23.2341 57.5381C33.5109 58.1959 49.292 57.1731 49.6657 52.3104C49.6657 52.3104 48.9473 54.1538 41.1726 55.6178C32.4011 57.2685 21.5828 57.0757 15.1664 56.0178C15.1665 56.0177 16.4799 57.105 23.2341 57.5381Z" fill="#5382A1"/>
</svg>
