<svg width="58" height="58" viewBox="0 0 58 58" fill="none" xmlns="http://www.w3.org/2000/svg">
<path fill-rule="evenodd" clip-rule="evenodd" d="M0 0.173828H57.0652V57.239H0V0.173828V0.173828Z" fill="#F7DF1E"/>
<path fill-rule="evenodd" clip-rule="evenodd" d="M15.0046 47.8617L19.3716 45.2189C20.2141 46.7126 20.9805 47.9765 22.8188 47.9765C24.5809 47.9765 25.6919 47.2872 25.6919 44.606V26.3723H31.0546V44.6818C31.0546 50.2362 27.7988 52.7643 23.0487 52.7643C18.7587 52.7643 16.2685 50.5425 15.0045 47.8613" fill="#121212"/>
<path fill-rule="evenodd" clip-rule="evenodd" d="M33.9674 47.287L38.3339 44.7589C39.4833 46.6361 40.9773 48.0149 43.6202 48.0149C45.8422 48.0149 47.2591 46.904 47.2591 45.3717C47.2591 43.5331 45.8036 42.8818 43.352 41.8096L42.0117 41.2346C38.1426 39.5878 35.576 37.5193 35.576 33.1524C35.576 29.1303 38.6404 26.0657 43.4288 26.0657C46.838 26.0657 49.2896 27.2533 51.0514 30.3561L46.8761 33.0373C45.9567 31.3903 44.9611 30.7392 43.4289 30.7392C41.8583 30.7392 40.8623 31.7351 40.8623 33.0373C40.8623 34.6462 41.8583 35.2976 44.1564 36.2936L45.497 36.8681C50.0554 38.8218 52.622 40.8135 52.622 45.2951C52.622 50.1219 48.8298 52.7648 43.7352 52.7648C38.7555 52.7648 35.5378 50.3899 33.9675 47.287" fill="#121212"/>
</svg>
