<svg width="58" height="57" viewBox="0 0 58 57" fill="none" xmlns="http://www.w3.org/2000/svg">
<g opacity="0.4">
<path d="M46.9191 19.7984C46.3271 19.5975 45.7137 19.4073 45.0821 19.2275C45.1859 18.8096 45.2812 18.3971 45.3659 17.9916C46.7564 11.3337 45.8472 5.97007 42.7426 4.20413C39.7656 2.51082 34.897 4.27636 29.98 8.49715C29.5071 8.90302 29.033 9.33273 28.559 9.78308C28.2432 9.48512 27.9279 9.19718 27.6135 8.92175C22.4602 4.40861 17.2949 2.50671 14.1933 4.27776C11.2192 5.97598 10.3384 11.0183 11.5901 17.3281C11.711 17.9375 11.8523 18.5599 12.0121 19.1927C11.2811 19.3974 10.5753 19.6156 9.90004 19.8477C3.85844 21.9254 0 25.1815 0 28.559C0 32.0473 4.14204 35.5461 10.4348 37.6677C10.9314 37.8351 11.4467 37.9934 11.9778 38.1437C11.8054 38.8281 11.6555 39.4987 11.5296 40.1529C10.3361 46.3531 11.2682 51.2763 14.2344 52.9638C17.2982 54.7065 22.4401 52.9152 27.4471 48.5982C27.8428 48.257 28.24 47.8951 28.6378 47.5158C29.1535 48.0056 29.6684 48.4692 30.1806 48.904C35.0304 53.0205 39.8204 54.6828 42.7838 52.9906C45.8446 51.2429 46.8393 45.9541 45.5479 39.5196C45.4493 39.0281 45.3345 38.5261 45.2056 38.0151C45.5667 37.9098 45.9212 37.8011 46.2668 37.6881C52.8088 35.5502 57.0652 32.0939 57.0652 28.559C57.0652 25.1693 53.0823 21.8912 46.9191 19.7984ZM45.5002 35.4057C45.1881 35.5076 44.8679 35.6061 44.5417 35.7015C43.8195 33.4464 42.8448 31.0483 41.652 28.5707C42.7902 26.1522 43.7273 23.7848 44.4292 21.5442C45.013 21.7109 45.5796 21.8866 46.1255 22.072C51.4062 23.8651 54.6274 26.5163 54.6274 28.559C54.6274 30.7349 51.1487 33.5596 45.5002 35.4057ZM43.1564 39.9866C43.7275 42.8318 43.809 45.4043 43.4308 47.4153C43.0909 49.2223 42.4074 50.4271 41.5623 50.9096C39.7639 51.9364 35.918 50.6017 31.7704 47.0813C31.2949 46.6777 30.816 46.2468 30.3356 45.7907C31.9435 44.0562 33.5505 42.0396 35.119 39.8001C37.8776 39.5586 40.484 39.1639 42.8475 38.625C42.9639 39.0881 43.0673 39.5424 43.1564 39.9866ZM19.4548 50.7322C17.6978 51.3442 16.2984 51.3618 15.4524 50.8807C13.6524 49.8566 12.9041 45.9037 13.9249 40.6013C14.0418 39.9941 14.1809 39.3703 14.3413 38.7327C16.679 39.2425 19.2662 39.6094 22.0315 39.8306C23.6105 42.022 25.2639 44.0363 26.9302 45.8001C26.5661 46.1467 26.2035 46.4767 25.8429 46.7877C23.6289 48.6966 21.4101 50.051 19.4548 50.7322ZM11.2233 35.3924C8.4407 34.4543 6.14277 33.2351 4.56764 31.9047C3.15229 30.7091 2.43771 29.5221 2.43771 28.559C2.43771 26.5094 5.53565 23.8952 10.7025 22.1183C11.3294 21.9027 11.9857 21.6995 12.6667 21.5087C13.3808 23.7998 14.3175 26.1952 15.448 28.6175C14.3029 31.0758 13.3529 33.5094 12.6318 35.8274C12.1463 35.6897 11.6759 35.5448 11.2233 35.3924ZM13.9826 16.8663C12.9101 11.4603 13.6224 7.38214 15.4147 6.3588C17.3238 5.26864 21.5453 6.82298 25.9947 10.7199C26.2792 10.9689 26.5647 11.2296 26.851 11.4993C25.193 13.2554 23.5547 15.2545 21.9897 17.4331C19.3059 17.6784 16.7369 18.0726 14.3748 18.6004C14.2263 18.0112 14.0948 17.4323 13.9826 16.8663ZM38.5979 22.8615C38.0332 21.8995 37.4536 20.9602 36.8626 20.0466C38.6833 20.2736 40.4278 20.575 42.066 20.9438C41.5742 22.4985 40.9612 24.1241 40.2396 25.7906C39.7219 24.8212 39.1744 23.8439 38.5979 22.8615ZM28.5598 13.2178C29.6843 14.4194 30.8103 15.7609 31.9179 17.2165C30.8018 17.1645 29.6719 17.1374 28.5326 17.1374C27.4041 17.1374 26.2825 17.1639 25.1733 17.215C26.282 15.7729 27.4178 14.4332 28.5598 13.2178ZM18.4575 22.8782C17.8934 23.8429 17.3561 24.8149 16.8466 25.7888C16.1367 24.1281 15.5293 22.4951 15.0332 20.9184C16.6614 20.559 18.3976 20.2651 20.2068 20.0424C19.6075 20.9644 19.023 21.9106 18.4575 22.878V22.8782ZM20.2589 37.2472C18.3897 37.0415 16.6274 36.7627 14.9996 36.4133C15.5036 34.8083 16.1244 33.1405 16.8493 31.4441C17.3601 32.4172 17.8996 33.3897 18.4671 34.3565H18.4672C19.0453 35.3415 19.6442 36.3063 20.2589 37.2472ZM28.6273 44.0698C27.4719 42.8402 26.3194 41.48 25.1938 40.0169C26.2865 40.0592 27.4004 40.0808 28.5326 40.0808C29.6957 40.0808 30.8456 40.055 31.9773 40.0053C30.8661 41.4947 29.7441 42.857 28.6273 44.0698ZM40.2628 31.3576C41.0256 33.0724 41.6685 34.7315 42.179 36.3091C40.5245 36.6814 38.7381 36.9813 36.8559 37.2041C37.4483 36.2781 38.033 35.3227 38.6077 34.34C39.189 33.3457 39.7409 32.3499 40.2628 31.3576ZM36.496 33.1387C35.604 34.6643 34.6882 36.1206 33.7585 37.4953C32.0651 37.6148 30.3157 37.6763 28.5326 37.6763C26.7568 37.6763 25.0294 37.6219 23.366 37.5154C22.3988 36.1226 21.4631 34.662 20.5767 33.1518H20.5769C19.6929 31.6458 18.8793 30.127 18.1421 28.6167C18.8791 27.103 19.6906 25.5825 20.5695 24.0791L20.5693 24.0794C21.4506 22.5721 22.3781 21.1185 23.3363 19.7345C25.0334 19.608 26.7737 19.542 28.5325 19.542H28.5326C30.2993 19.542 32.0418 19.6085 33.7384 19.7361C34.6821 21.11 35.6033 22.5589 36.488 24.0664C37.3828 25.5909 38.2047 27.1013 38.948 28.5826C38.2069 30.0893 37.3868 31.6149 36.496 33.1387ZM41.5249 6.28727C43.4358 7.37423 44.179 11.7579 42.9783 17.5063C42.9017 17.8731 42.8155 18.2467 42.7219 18.6253C40.3543 18.0865 37.7835 17.6855 35.0918 17.4365C33.5238 15.234 31.8989 13.2317 30.2679 11.4982C30.7064 11.0821 31.1443 10.6854 31.5804 10.311C35.7933 6.69464 39.7309 5.26684 41.5249 6.28727ZM28.5326 23.5328C31.3468 23.5328 33.6283 25.7831 33.6283 28.559C33.6283 31.3349 31.3468 33.5852 28.5326 33.5852C25.7184 33.5852 23.4369 31.3349 23.4369 28.559C23.4369 25.7831 25.7184 23.5328 28.5326 23.5328Z" fill="#00D8FF"/>
</g>
</svg>
